HIERARCHY
ROOT Hips
{
  OFFSET 0.000 63.631 0.000
  CHANNELS 6 Xposition Yposition Zposition Zrotation Xrotation Yrotation
  JOINT LeftUpLeg
  {
    OFFSET 7.284 -0.052 3.451
    CHANNELS 6 Xposition Yposition Zposition Zrotation Xrotation Yrotation
    JOINT LeftLeg
    {
      OFFSET 0.000 -33.358 0.000
      CHANNELS 6 Xposition Yposition Zposition Zrotation Xrotation Yrotation
      JOINT LeftFoot
      {
        OFFSET 0.000 -30.221 0.000
        CHANNELS 6 Xposition Yposition Zposition Zrotation Xrotation Yrotation
        End Site
        {
          OFFSET 0.000 0.000 9.119
        }
      }
    }
  }
  JOINT RightUpLeg
  {
    OFFSET -7.284 -0.052 3.451
    CHANNELS 6 Xposition Yposition Zposition Zrotation Xrotation Yrotation
    JOINT RightLeg
    {
      OFFSET 0.000 -33.358 0.000
      CHANNELS 6 Xposition Yposition Zposition Zrotation Xrotation Yrotation
      JOINT RightFoot
      {
        OFFSET 0.000 -30.221 0.000
        CHANNELS 6 Xposition Yposition Zposition Zrotation Xrotation Yrotation
        End Site
        {
          OFFSET 0.000 0.000 9.119
        }
      }
    }
  }
  JOINT Spine
  {
    OFFSET 0.000 29.748 0.000
    CHANNELS 6 Xposition Yposition Zposition Zrotation Xrotation Yrotation
    JOINT Spine1
    {
      OFFSET 0.000 21.378 0.000
      CHANNELS 6 Xposition Yposition Zposition Zrotation Xrotation Yrotation
      JOINT LeftShoulder
      {
        OFFSET 1.517 -0.350 0.156
        CHANNELS 6 Xposition Yposition Zposition Zrotation Xrotation Yrotation
        JOINT LeftArm
        {
          OFFSET 14.040 0.000 0.000
          CHANNELS 6 Xposition Yposition Zposition Zrotation Xrotation Yrotation
          JOINT LeftForeArm
          {
            OFFSET 24.137 0.000 0.000
            CHANNELS 6 Xposition Yposition Zposition Zrotation Xrotation Yrotation
            JOINT LeftHand
            {
              OFFSET 22.017 0.000 0.000
              CHANNELS 6 Xposition Yposition Zposition Zrotation Xrotation Yrotation
              JOINT LeftHandThumb1
              {
                OFFSET 4.877 -1.044 3.608
                CHANNELS 6 Xposition Yposition Zposition Zrotation Xrotation Yrotation
                JOINT LeftHandThumb2
                {
                  OFFSET 2.665 -0.000 -0.000
                  CHANNELS 6 Xposition Yposition Zposition Zrotation Xrotation Yrotation
                  JOINT LeftHandThumb3
                  {
                    OFFSET 2.543 0.000 0.000
                    CHANNELS 6 Xposition Yposition Zposition Zrotation Xrotation Yrotation
                    End Site
                    {
                      OFFSET 2.667 -0.000 -0.000
                    }
                  }
                }
              }
              JOINT LeftHandIndex1
              {
                OFFSET 9.232 -0.301 2.144
                CHANNELS 6 Xposition Yposition Zposition Zrotation Xrotation Yrotation
                JOINT LeftHandIndex2
                {
                  OFFSET 4.225 -0.000 0.000
                  CHANNELS 6 Xposition Yposition Zposition Zrotation Xrotation Yrotation
                  JOINT LeftHandIndex3
                  {
                    OFFSET 2.654 -0.000 -0.000
                    CHANNELS 6 Xposition Yposition Zposition Zrotation Xrotation Yrotation
                    End Site
                    {
                      OFFSET 1.958 -0.000 0.000
                    }
                  }
                }
              }
              JOINT LeftHandMiddle1
              {
                OFFSET 8.920 0.000 -0.000
                CHANNELS 6 Xposition Yposition Zposition Zrotation Xrotation Yrotation
                JOINT LeftHandMiddle2
                {
                  OFFSET 4.863 -0.000 0.000
                  CHANNELS 6 Xposition Yposition Zposition Zrotation Xrotation Yrotation
                  JOINT LeftHandMiddle3
                  {
                    OFFSET 2.765 -0.000 -0.000
                    CHANNELS 6 Xposition Yposition Zposition Zrotation Xrotation Yrotation
                    End Site
                    {
                      OFFSET 2.006 -0.000 0.000
                    }
                  }
                }
              }
              JOINT LeftHandRing1
              {
                OFFSET 8.689 -0.126 -2.087
                CHANNELS 6 Xposition Yposition Zposition Zrotation Xrotation Yrotation
                JOINT LeftHandRing2
                {
                  OFFSET 4.538 0.000 0.000
                  CHANNELS 6 Xposition Yposition Zposition Zrotation Xrotation Yrotation
                  JOINT LeftHandRing3
                  {
                    OFFSET 2.305 -0.000 -0.000
                    CHANNELS 6 Xposition Yposition Zposition Zrotation Xrotation Yrotation
                    End Site
                    {
                      OFFSET 1.923 -0.000 0.000
                    }
                  }
                }
              }
              JOINT LeftHandPinky1
              {
                OFFSET 8.391 -0.817 -3.758
                CHANNELS 6 Xposition Yposition Zposition Zrotation Xrotation Yrotation
                JOINT LeftHandPinky2
                {
                  OFFSET 3.044 -0.000 0.000
                  CHANNELS 6 Xposition Yposition Zposition Zrotation Xrotation Yrotation
                  JOINT LeftHandPinky3
                  {
                    OFFSET 1.975 -0.000 0.000
                    CHANNELS 6 Xposition Yposition Zposition Zrotation Xrotation Yrotation
                    End Site
                    {
                      OFFSET 1.667 -0.000 0.000
                    }
                  }
                }
              }
            }
          }
        }
      }
      JOINT RightShoulder
      {
        OFFSET -1.517 -0.350 0.156
        CHANNELS 6 Xposition Yposition Zposition Zrotation Xrotation Yrotation
        JOINT RightArm
        {
          OFFSET -14.040 0.000 0.000
          CHANNELS 6 Xposition Yposition Zposition Zrotation Xrotation Yrotation
          JOINT RightForeArm
          {
            OFFSET -24.137 0.000 0.000
            CHANNELS 6 Xposition Yposition Zposition Zrotation Xrotation Yrotation
            JOINT RightHand
            {
              OFFSET -22.017 0.000 0.000
              CHANNELS 6 Xposition Yposition Zposition Zrotation Xrotation Yrotation
              JOINT RightHandThumb1
              {
                OFFSET -4.877 -1.044 3.608
                CHANNELS 6 Xposition Yposition Zposition Zrotation Xrotation Yrotation
                JOINT RightHandThumb2
                {
                  OFFSET -2.665 0.000 0.000
                  CHANNELS 6 Xposition Yposition Zposition Zrotation Xrotation Yrotation
                  JOINT RightHandThumb3
                  {
                    OFFSET -2.543 0.000 0.000
                    CHANNELS 6 Xposition Yposition Zposition Zrotation Xrotation Yrotation
                    End Site
                    {
                      OFFSET -2.667 0.000 -0.000
                    }
                  }
                }
              }
              JOINT RightHandIndex1
              {
                OFFSET -9.232 -0.301 2.144
                CHANNELS 6 Xposition Yposition Zposition Zrotation Xrotation Yrotation
                JOINT RightHandIndex2
                {
                  OFFSET -4.225 0.000 0.000
                  CHANNELS 6 Xposition Yposition Zposition Zrotation Xrotation Yrotation
                  JOINT RightHandIndex3
                  {
                    OFFSET -2.654 -0.000 -0.000
                    CHANNELS 6 Xposition Yposition Zposition Zrotation Xrotation Yrotation
                    End Site
                    {
                      OFFSET -1.958 0.000 0.000
                    }
                  }
                }
              }
              JOINT RightHandMiddle1
              {
                OFFSET -8.920 0.000 0.000
                CHANNELS 6 Xposition Yposition Zposition Zrotation Xrotation Yrotation
                JOINT RightHandMiddle2
                {
                  OFFSET -4.863 -0.000 0.000
                  CHANNELS 6 Xposition Yposition Zposition Zrotation Xrotation Yrotation
                  JOINT RightHandMiddle3
                  {
                    OFFSET -2.765 -0.000 0.000
                    CHANNELS 6 Xposition Yposition Zposition Zrotation Xrotation Yrotation
                    End Site
                    {
                      OFFSET -2.006 -0.000 0.000
                    }
                  }
                }
              }
              JOINT RightHandRing1
              {
                OFFSET -8.689 -0.126 -2.087
                CHANNELS 6 Xposition Yposition Zposition Zrotation Xrotation Yrotation
                JOINT RightHandRing2
                {
                  OFFSET -4.538 0.000 0.000
                  CHANNELS 6 Xposition Yposition Zposition Zrotation Xrotation Yrotation
                  JOINT RightHandRing3
                  {
                    OFFSET -2.305 -0.000 0.000
                    CHANNELS 6 Xposition Yposition Zposition Zrotation Xrotation Yrotation
                    End Site
                    {
                      OFFSET -1.923 0.000 0.000
                    }
                  }
                }
              }
              JOINT RightHandPinky1
              {
                OFFSET -8.391 -0.817 -3.758
                CHANNELS 6 Xposition Yposition Zposition Zrotation Xrotation Yrotation
                JOINT RightHandPinky2
                {
                  OFFSET -3.044 0.000 0.000
                  CHANNELS 6 Xposition Yposition Zposition Zrotation Xrotation Yrotation
                  JOINT RightHandPinky3
                  {
                    OFFSET -1.975 0.000 0.000
                    CHANNELS 6 Xposition Yposition Zposition Zrotation Xrotation Yrotation
                    End Site
                    {
                      OFFSET -1.667 0.000 -0.000
                    }
                  }
                }
              }
            }
          }
        }
      }
      JOINT Neck
      {
        OFFSET 0.000 0.686 0.000
        CHANNELS 6 Xposition Yposition Zposition Zrotation Xrotation Yrotation
        JOINT Head
        {
          OFFSET 0.000 6.262 0.000
          CHANNELS 6 Xposition Yposition Zposition Zrotation Xrotation Yrotation
          End Site
          {
            OFFSET 0.000 14.066 0.000
          }
        }
      }
    }
  }
}
MOTION
Frames:	4
Frame Time:	0.033333
13.08895 74.18695 -168.85207 0.81858 -3.96613 -0.55512 7.46328 -0.35539 3.54184 10.70896 -1.76602 15.67683 0.00168 -32.75137 0.00229 0.59412 14.34704 -19.00380 0.00497 -32.10748 -0.00238 0.37146 4.93254 -4.37926 -7.93619 -0.29484 3.54072 -13.67496 4.84548 -17.68212 0.00011 -32.35316 -0.00629 2.30791 6.67016 16.75492 -0.00510 -32.18544 -0.00387 -0.29482 7.51385 2.27167 -0.00072 29.16845 -0.00018 0.18380 1.81081 -1.44830 -0.00523 20.93753 -0.00148 0.16040 2.21335 -1.34460 1.34165 -0.23470 0.21112 -9.71330 1.42683 -8.26923 12.38509 0.00494 0.00747 3.96551 -4.53040 -60.00874 22.98808 0.00935 0.00693 36.53294 19.66492 -43.08844 22.29471 0.06225 0.01738 -11.42961 10.00038 1.36789 4.87700 -1.04401 3.60799 -41.57448 -8.45572 -7.72809 2.66498 -0.00001 -0.00001 0.00000 0.00000 4.99846 2.54301 0.00000 0.00001 0.00000 0.00000 59.99832 9.23200 -0.30100 2.14401 -79.99860 0.00000 -0.00000 4.22500 -0.00001 0.00000 -89.99844 0.00000 -0.00000 2.65400 -0.00001 -0.00001 -69.99879 0.00000 0.00000 8.92000 0.00000 -0.00001 -79.99860 0.00000 -0.00000 4.86299 -0.00001 0.00001 -89.99844 0.00000 -0.00000 2.76500 -0.00001 -0.00001 -69.99879 0.00000 0.00000 8.68900 -0.12602 -2.08700 -79.99860 0.00000 -0.00000 4.53800 0.00000 0.00001 -89.99844 0.00000 -0.00000 2.30499 -0.00002 -0.00001 -69.99879 0.00000 0.00000 8.39100 -0.81701 -3.75800 -79.99860 0.00000 -0.00000 3.04400 -0.00001 0.00001 -89.99844 0.00000 -0.00000 1.97500 -0.00001 0.00000 -69.99879 0.00000 0.00000 -1.24871 -0.34491 0.20510 15.14388 2.36801 8.67545 -11.78087 0.00422 0.00002 -30.30758 -2.12583 62.29037 -22.98469 0.01815 0.01256 -21.45218 25.79753 27.96704 -22.47507 0.06716 0.04729 -1.32052 31.76940 5.09583 -4.87701 -1.04401 3.60800 37.43780 21.26523 8.20511 -2.66500 0.00002 0.00000 -0.00000 0.00000 -5.00000 -2.54301 0.00002 0.00000 0.00000 -0.00000 -60.00000 -9.23201 -0.30099 2.14401 79.99861 0.00000 -0.00000 -4.22500 0.00000 0.00000 89.99844 -0.00000 -0.00000 -2.65399 -0.00001 -0.00001 69.99878 -0.00000 0.00000 -8.92001 0.00000 0.00001 80.00000 -0.00000 0.00000 -4.86300 -0.00001 0.00000 90.00000 -0.00000 0.00001 -2.76500 -0.00001 0.00001 69.99999 -0.00000 0.00000 -8.68900 -0.12600 -2.08701 80.00000 -0.00000 0.00000 -4.53800 0.00000 0.00000 90.00000 -0.00000 0.00001 -2.30501 -0.00001 0.00000 69.99999 -0.00000 0.00000 -8.39101 -0.81700 -3.75800 79.99861 0.00000 -0.00000 -3.04401 0.00001 0.00002 89.99844 -0.00000 -0.00000 -1.97501 0.00001 0.00000 69.99878 -0.00000 0.00000 -0.00081 0.67421 0.00050 -0.00001 -0.00004 -0.00026 0.00288 6.05157 0.00577 0.70488 -3.19925 -2.07385 
13.09398 74.20751 -168.84399 0.80183 -4.03652 -0.52840 7.45716 -0.36105 3.54193 10.72678 -1.71783 15.63723 0.00170 -32.75511 0.00227 0.59820 14.37021 -19.05861 0.00495 -32.10751 -0.00236 0.35643 4.90992 -4.22352 -7.93366 -0.29421 3.54084 -13.66556 4.95878 -17.68226 0.00007 -32.43337 -0.00627 2.34337 6.62998 16.72412 -0.00509 -32.18559 -0.00384 -0.30830 7.48515 2.38365 -0.00072 29.17054 -0.00018 0.13375 1.65725 -1.40123 -0.00521 20.94521 -0.00148 0.12231 2.10267 -1.30277 1.33441 -0.23259 0.21085 -9.68848 1.47245 -8.59639 12.32004 0.00490 0.00744 4.63750 -4.32232 -59.59024 22.98378 0.00921 0.00681 37.30353 19.96271 -42.87452 22.32595 0.05949 0.00896 -8.38249 9.91182 2.25796 4.87700 -1.04401 3.60799 -41.57451 -8.45575 -7.72813 2.66498 -0.00001 -0.00001 0.00000 0.00000 4.99849 2.54301 0.00000 0.00001 0.00000 0.00000 59.99836 9.23200 -0.30100 2.14401 -79.99863 0.00000 -0.00000 4.22500 -0.00001 0.00000 -89.99847 0.00000 -0.00000 2.65400 -0.00001 -0.00001 -69.99881 0.00000 0.00000 8.92000 0.00000 -0.00001 -79.99863 0.00000 -0.00000 4.86299 -0.00001 0.00001 -89.99847 0.00000 -0.00000 2.76500 -0.00001 -0.00001 -69.99881 0.00000 0.00000 8.68900 -0.12602 -2.08700 -79.99863 0.00000 -0.00000 4.53800 0.00000 0.00001 -89.99847 0.00000 -0.00000 2.30499 -0.00002 -0.00001 -69.99881 0.00000 0.00000 8.39100 -0.81701 -3.75800 -79.99863 0.00000 -0.00000 3.04400 -0.00001 0.00001 -89.99847 0.00000 -0.00000 1.97500 -0.00001 0.00000 -69.99881 0.00000 0.00000 -1.24909 -0.34495 0.20470 15.02620 2.41059 8.95626 -11.82323 0.00417 0.00005 -30.86710 -1.73448 62.04623 -22.98366 0.01606 0.01197 -22.51099 26.94584 27.49101 -22.46720 0.06425 0.04515 -2.55350 31.41848 5.45137 -4.87701 -1.04401 3.60800 37.43781 21.26526 8.20515 -2.66500 0.00002 0.00000 -0.00000 0.00000 -5.00000 -2.54301 0.00002 0.00000 0.00000 -0.00000 -60.00000 -9.23201 -0.30099 2.14401 79.99866 0.00000 -0.00000 -4.22500 0.00000 0.00000 89.99850 -0.00000 -0.00000 -2.65399 -0.00001 -0.00001 69.99882 -0.00000 0.00000 -8.92001 0.00000 0.00001 80.00000 -0.00000 0.00000 -4.86300 -0.00001 0.00000 90.00000 -0.00000 0.00001 -2.76500 -0.00001 0.00001 69.99999 -0.00000 0.00000 -8.68900 -0.12600 -2.08701 80.00000 -0.00000 0.00000 -4.53800 0.00000 0.00000 90.00000 -0.00000 0.00001 -2.30501 -0.00001 0.00000 69.99999 -0.00000 0.00000 -8.39101 -0.81700 -3.75800 79.99866 0.00000 -0.00000 -3.04401 0.00001 0.00002 89.99850 -0.00000 -0.00000 -1.97501 0.00001 0.00000 69.99882 -0.00000 0.00000 -0.00081 0.67410 0.00050 -0.00001 -0.00004 -0.00026 0.00286 6.05071 0.00574 0.89217 -2.25970 -2.33595 
13.09564 74.22625 -168.83189 0.78894 -4.07143 -0.50227 7.45067 -0.36475 3.54202 10.74644 -1.70762 15.62689 0.00173 -32.76042 0.00225 0.60315 14.39218 -19.11538 0.00494 -32.10754 -0.00234 0.34807 4.89976 -4.13373 -7.93138 -0.29420 3.54096 -13.65808 5.03345 -17.69678 0.00004 -32.50629 -0.00626 2.38170 6.59709 16.71412 -0.00507 -32.18573 -0.00381 -0.31514 7.47282 2.44009 -0.00072 29.16488 -0.00018 0.10346 1.59349 -1.38082 -0.00518 20.93962 -0.00148 0.10246 2.08751 -1.28371 1.32988 -0.23029 0.21061 -9.60654 1.47725 -8.70616 12.27559 0.00486 0.00740 5.08915 -4.40523 -59.41858 22.97990 0.00907 0.00671 37.52953 19.81182 -42.57357 22.34782 0.05888 0.00362 -6.12818 9.53340 3.39399 4.87700 -1.04401 3.60799 -41.57454 -8.45578 -7.72816 2.66498 -0.00001 -0.00001 0.00000 0.00000 4.99852 2.54301 0.00000 0.00001 0.00000 0.00000 59.99839 9.23200 -0.30100 2.14401 -79.99866 0.00000 -0.00000 4.22500 -0.00001 0.00000 -89.99850 0.00000 -0.00000 2.65400 -0.00001 -0.00001 -69.99883 0.00000 0.00000 8.92000 0.00000 -0.00001 -79.99866 0.00000 -0.00000 4.86299 -0.00001 0.00001 -89.99850 0.00000 -0.00000 2.76500 -0.00001 -0.00001 -69.99883 0.00000 0.00000 8.68900 -0.12602 -2.08700 -79.99866 0.00000 -0.00000 4.53800 0.00000 0.00001 -89.99850 0.00000 -0.00000 2.30499 -0.00002 -0.00001 -69.99883 0.00000 0.00000 8.39100 -0.81701 -3.75800 -79.99866 0.00000 -0.00000 3.04400 -0.00001 0.00001 -89.99850 0.00000 -0.00000 1.97500 -0.00001 0.00000 -69.99883 0.00000 0.00000 -1.25096 -0.34175 0.20431 14.87294 2.40358 9.03330 -11.83967 0.00412 0.00008 -31.12664 -1.80258 61.96078 -22.98263 0.01418 0.01147 -23.26854 27.78485 27.09777 -22.46066 0.05592 0.04318 -3.94139 31.25739 5.55935 -4.87701 -1.04401 3.60800 37.43782 21.26529 8.20520 -2.66500 0.00002 0.00000 -0.00000 0.00000 -5.00000 -2.54301 0.00002 0.00000 0.00000 -0.00000 -60.00000 -9.23201 -0.30099 2.14401 79.99870 0.00000 -0.00000 -4.22500 0.00000 0.00000 89.99854 -0.00000 -0.00000 -2.65399 -0.00001 -0.00001 69.99885 -0.00000 0.00000 -8.92001 0.00000 0.00001 80.00000 -0.00000 0.00000 -4.86300 -0.00001 0.00000 90.00000 -0.00000 0.00001 -2.76500 -0.00001 0.00001 69.99999 -0.00000 0.00000 -8.68900 -0.12600 -2.08701 80.00000 -0.00000 0.00000 -4.53800 0.00000 0.00000 90.00000 -0.00000 0.00001 -2.30501 -0.00001 0.00000 69.99999 -0.00000 0.00000 -8.39101 -0.81700 -3.75800 79.99870 0.00000 -0.00000 -3.04401 0.00001 0.00002 89.99854 -0.00000 -0.00000 -1.97501 0.00001 0.00000 69.99885 -0.00000 0.00000 -0.00081 0.67398 0.00050 -0.00001 -0.00004 -0.00026 0.00284 6.04725 0.00572 0.98934 -1.93947 -2.44184 
13.09239 74.25680 -168.82626 0.76038 -4.14040 -0.45579 7.44080 -0.36703 3.54211 10.78718 -1.67332 15.60663 0.00176 -32.78279 0.00222 0.60760 14.42299 -19.16372 0.00493 -32.10757 -0.00233 0.33623 4.89289 -4.00034 -7.92979 -0.30108 3.54108 -13.61488 5.14132 -17.69413 0.00001 -32.56778 -0.00625 2.39054 6.55818 16.69152 -0.00506 -32.18587 -0.00378 -0.32784 7.44404 2.54728 -0.00072 29.15144 -0.00018 0.06623 1.50119 -1.33291 -0.00516 20.92528 -0.00148 0.08104 2.05582 -1.24224 1.32219 -0.22662 0.21039 -9.50052 1.49775 -8.93879 12.20427 0.00482 0.00736 5.54949 -4.44368 -59.11657 22.97440 0.00892 0.00662 37.87456 19.65253 -42.28499 22.35921 0.05838 -0.00386 -2.52438 9.29983 4.47809 4.87700 -1.04401 3.60799 -41.57457 -8.45581 -7.72819 2.66498 -0.00001 -0.00001 0.00000 0.00000 4.99855 2.54301 0.00000 0.00001 0.00000 0.00000 59.99842 9.23200 -0.30100 2.14401 -79.99869 0.00000 -0.00000 4.22500 -0.00001 0.00000 -89.99853 0.00000 -0.00000 2.65400 -0.00001 -0.00001 -69.99886 0.00000 0.00000 8.92000 0.00000 -0.00001 -79.99869 0.00000 -0.00000 4.86299 -0.00001 0.00001 -89.99853 0.00000 -0.00000 2.76500 -0.00001 -0.00001 -69.99886 0.00000 0.00000 8.68900 -0.12602 -2.08700 -79.99869 0.00000 -0.00000 4.53800 0.00000 0.00001 -89.99853 0.00000 -0.00000 2.30499 -0.00002 -0.00001 -69.99886 0.00000 0.00000 8.39100 -0.81701 -3.75800 -79.99869 0.00000 -0.00000 3.04400 -0.00001 0.00001 -89.99853 0.00000 -0.00000 1.97500 -0.00001 0.00000 -69.99886 0.00000 0.00000 -1.25586 -0.33299 0.20394 14.43776 2.36692 9.20492 -11.87261 0.00407 0.00012 -30.89335 -1.73624 61.79420 -22.98156 0.01278 0.01107 -24.19596 28.68710 26.75988 -22.45256 0.05022 0.04112 -5.44687 30.98125 5.32720 -4.87701 -1.04401 3.60800 37.43783 21.26531 8.20524 -2.66500 0.00002 0.00000 -0.00000 0.00000 -5.00000 -2.54301 0.00002 0.00000 0.00000 -0.00000 -60.00000 -9.23201 -0.30099 2.14401 79.99874 0.00000 -0.00000 -4.22500 0.00000 0.00000 89.99859 -0.00000 -0.00000 -2.65399 -0.00001 -0.00001 69.99889 -0.00000 0.00000 -8.92001 0.00000 0.00001 80.00000 -0.00000 0.00000 -4.86300 -0.00001 0.00000 90.00000 -0.00000 0.00001 -2.76500 -0.00001 0.00001 69.99999 -0.00000 0.00000 -8.68900 -0.12600 -2.08701 80.00000 -0.00000 0.00000 -4.53800 0.00000 0.00000 90.00000 -0.00000 0.00001 -2.30501 -0.00001 0.00000 69.99999 -0.00000 0.00000 -8.39101 -0.81700 -3.75800 79.99874 0.00000 -0.00000 -3.04401 0.00001 0.00002 89.99859 -0.00000 -0.00000 -1.97501 0.00001 0.00000 69.99889 -0.00000 0.00000 -0.00081 0.67387 0.00050 -0.00001 -0.00004 -0.00026 0.00283 6.04000 0.00569 1.14957 -1.32343 -2.67527 
